<svg t="1587535624342" class="icon" viewBox="0 0 1024 1024" version="1.1" xmlns="http://www.w3.org/2000/svg" p-id="6722" width="36" height="36"><path d="M512 0C228.266667 0 0 228.266667 0 512s228.266667 512 512 512 512-228.266667 512-512S795.733333 0 512 0z m164.266667 206.933333l4.266666 4.266667c14.933333 14.933333 14.933333 40.533333 0 55.466667L435.2 512l245.333333 245.333333c14.933333 14.933333 14.933333 40.533333 0 55.466667l-4.266666 4.266667c-14.933333 14.933333-40.533333 14.933333-57.6 0L343.466667 541.866667c-8.533333-8.533333-12.8-19.2-10.666667-29.866667 0-10.666667 4.266667-21.333333 10.666667-29.866667L618.666667 206.933333c17.066667-14.933333 42.666667-14.933333 57.6 0z" p-id="6723" fill="#515151"></path></svg>