<svg t="1574417151258" class="icon" viewBox="0 0 1236 1024" version="1.1" xmlns="http://www.w3.org/2000/svg" p-id="2818" width="30" height="30"><path d="M1128.554 513.667c0 281.847-228.487 510.333-510.336 510.333S107.883 795.514 107.883 513.667c0-281.848 228.485-510.334 510.334-510.334s510.337 228.486 510.337 510.334z m-192.161 31.46c0-55.36-14.448-109.897-41.782-157.71-26.487-46.33-64.527-85.59-110.016-113.542-19.876-12.213-45.894-6.002-58.109 13.876s-6.002 45.893 13.877 58.107c69.843 42.92 111.54 117.412 111.54 199.268 0 128.853-104.83 233.688-233.686 233.688S384.532 673.979 384.532 545.126c0-77.754 38.527-150.205 103.06-193.804 19.334-13.06 24.416-39.321 11.356-58.653-13.061-19.335-39.323-24.42-58.654-11.355-87.82 59.332-140.25 157.954-140.25 263.812 0 175.443 142.731 318.175 318.173 318.175 175.442 0.003 318.176-142.73 318.176-318.174zM660.807 533.65V206.274c0-23.33-18.914-42.244-42.245-42.244s-42.244 18.913-42.244 42.244V533.65c0 23.332 18.912 42.244 42.244 42.244s42.245-18.912 42.245-42.244z" p-id="2819" fill="#bfbfbf"></path></svg>