<svg t="1574418660568" class="icon" viewBox="0 0 3697 1024" version="1.1" xmlns="http://www.w3.org/2000/svg" p-id="4361" width="90" height="90"><path d="M361.178308 339.387103l-29.443482 20.636145a8.589003 8.589003 0 0 1-11.923888-2.095309l-34.391226-49.068948a8.592524 8.592524 0 0 1 2.091786-11.92741l29.443482-20.632623a8.592524 8.592524 0 0 1 11.923888 2.095309l34.394748 49.065426a8.589003 8.589003 0 0 1-2.095308 11.92741z m333.396987 0l29.447003 20.636145c3.856071 2.701011 9.212313 1.760763 11.923889-2.095309l34.391226-49.068948a8.592524 8.592524 0 0 0-2.095308-11.92741l-29.43996-20.632623a8.596046 8.596046 0 0 0-11.92741 2.095309l-34.394748 49.065426a8.603089 8.603089 0 0 0 2.095308 11.92741z m-199.019062-43.367597h64.651702a12.973303 12.973303 0 0 0 12.938088-12.938088v-80.88946a12.983868 12.983868 0 0 0-12.938088-12.938088h-64.651702a12.987389 12.987389 0 0 0-12.938088 12.938088v80.88946a12.973303 12.973303 0 0 0 12.938088 12.938088z m32.320569 20.224126c-159.391326 0-288.659516 129.261147-288.659516 288.655994s129.26819 288.659516 288.659516 288.659516c159.398369 0 288.663037-129.261147 288.663037-288.659516s-129.264668-288.655994-288.663037-288.655994z m0 46.994769c133.441198 0 241.661225 108.220027 241.661225 241.661225 0 133.44472-108.216505 241.657704-241.661225 241.657704-133.437677 0-241.654182-108.212984-241.654182-241.657704 0-133.441198 108.216505-241.661225 241.654182-241.661225z m-17.639326 209.323049c1.764285-98.574566 8.775644-174.371899 17.642847-174.3719s15.878562 75.797333 17.642847 174.3719a36.63796 36.63796 0 0 0-17.642847-4.493468 36.736563 36.736563 0 0 0-17.642847 4.493468z m17.639326 9.627853a22.713845 22.713845 0 1 1 0 45.42769 22.713845 22.713845 0 0 1 0-45.42769z m-16.857547 55.471083c-52.977843 50.794496-96.063718 86.347826-100.789606 81.625459-4.771668-4.761104 31.433144-48.540719 82.907295-102.127786a36.947855 36.947855 0 0 0 17.882311 20.502327z" p-id="4362" fill="#d81e06"></path><path d="M1141.189354 873.282193H742.168724v-139.459487l187.302944-155.838106c23.816083-19.808586 65.229233-50.178229 65.229233-85.752688 0-35.592067-23.654093-56.143695-57.44666-56.143695-38.504369 0-59.098255 25.467679-59.098255 63.813579h-81.364867a290.797082 290.797082 0 0 0-48.921044-81.65011c15.607405-39.19811 43.205607-73.730197 85.108249-94.767796 31.306369-15.713051 65.975796-23.615356 104.272396-23.615356 52.439049 0 105.867647 14.279789 146.006004 50.308526 39.134722 35.130747 58.636935 85.541397 58.636936 138.364292 0 50.329655-25.774051 94.676236-61.626712 126.563658l-137.149365 121.946936h198.064728v136.230247h0.007043zM1341.215573 623.556673l-5.979552 33.000223h329.287366c20.319207 0 30.975346 9.747585 29.788591 28.872995l-5.250595 84.689187c-2.134045 32.542425-15.420764 60.450522-39.113594 79.149827-31.757125 25.066225-73.547078 26.407926-112.238088 27.633417-36.620353 1.165625-73.694982 0.13734-110.068828-0.764171-21.773597-0.538794-43.455635-1.616381-64.732697-3.775076l-17.952742-78.991358c25.302167 2.979211 50.998745 4.630807 76.772796 5.616835 35.426555 1.345223 73.818236 4.398386 110.406895 2.753833 25.798702-1.148018 66.553327-0.887425 69.557189-35.00045l2.046006-33.549582h-321.289979c-29.330793 0-43.58241-18.005564-39.226282-43.318296l11.409745-66.310341h-74.349986v-74.054178h583.390144v74.054178H1341.215573zM2006.220611 602.846576c39.993975 103.694865 106.839588 194.430513 211.432443 262.41358l72.775864-59.337719c-147.875935-81.290915-218.190252-212.767101-243.47129-363.717329 6.440872-45.047365 9.543336-91.36248 9.937748-138.36077l-79.973864-0.595138c-1.767806 207.3193-63.105752 397.224652-254.940901 502.673237l72.779385 59.337719c104.606941-67.990109 171.456075-158.718715 211.460615-262.41358zM2906.727725 356.079138h109.234226v-57.337492h86.74928v57.337492h109.24127v66.401901h-305.228298v-66.401901h0.003522z m-8.560831 180.696561h45.160054l-10.427239-93.559913H3011.563565l10.427239 93.559913h74.695096l10.423718-93.559913h78.670899l-10.42724 93.559913h45.167097v66.398379h-322.357001l0.003521-66.398379z m573.3221-148.608413l-45.153011 150.710764c41.571619 42.518909 76.691801 201.776417 16.68147 260.564779-25.136655 24.626034-59.129949 30.584456-93.401444 31.390885l-21.284105-77.160164c18.752128 1.838237 42.297053 4.504032 57.083942-9.980005 32.081105-31.429623-11.754855-167.054168-40.891964-197.268864l44.216285-151.467892h-68.049975v483.988019h-79.509023V323.300771l198.434489-0.373282c21.287627-0.042258 31.869814 5.602748 31.869814 25.777573v39.462224h0.003522zM1269.200359 320.251129h405.563627c17.60411 0 32.003632 14.399521 32.003631 32.003631v140.452558c0 17.60411-14.399521 32.003632-32.003631 32.003631H1269.200359c-17.600589 0-32.003632-14.399521-32.003632-32.003631v-140.452558c0-17.600589 14.399521-32.003632 32.003632-32.003631z m47.11098 64.007263v76.448816h311.338145v-76.448816h-311.338145zM2367.110154 415.487288h187.147997v-24.960579h-249.799472v-52.446092h249.799472v-38.768484h88.531173v38.768484h220.40177v52.446092H2642.789324v24.960579h179.699969c10.88856 0 19.7945 8.909462 19.794499 19.798021v87.995901c0 10.892081-8.90594 19.798021-19.794499 19.798021H2642.789324v24.185843h175.301582c15.938428 0 23.478016 9.744063 23.478017 24.189365v54.485055h23.946379v51.308639h-23.946379v59.207423c0 17.466771-7.257866 23.118821-24.214016 23.118821H2642.718893c-1.813586 59.041911-41.518796 95.729173-109.022934 97.905476-24.872541 0.802908-54.703391 0.264114-70.095982-0.855731l-15.956036-74.617622c0.028172 0.014086 11.606951 4.806883 73.402695 2.817221 19.269792-0.616267 31.080992-8.807337 32.943879-25.242301h-219.845369v-54.963984h220.113005v-27.362259h-253.180137v-51.30864h253.183659v-27.362259h-220.113005V567.268595h220.113005v-24.185843h-187.147997c-10.88856 0-19.7945-8.909462-19.7945-19.798021v-87.9959c-0.007043-10.88856 8.898897-19.801543 19.790978-19.801543z m275.682692 50.297961v26.224807h114.347482v-26.224807h-114.347482z m-88.531173 26.23185v-26.224807h-128.842085v26.224807h128.842085z m88.531173 205.248642v27.36226h117.816185v-27.36226h-117.816185z m0-78.677942v27.36226h117.816185v-27.36226h-117.816185zM2946.887211 636.174302h226.846164c17.600589 0 32.003632 14.410086 32.003632 32.00011v169.276251c0 17.590024-14.413607 32.00011-32.003632 32.00011h-226.846164c-17.590024 0-32.003632-14.399521-32.003631-32.00011v-169.276251c-0.003522-17.60411 14.396-32.00011 32.003631-32.00011z m48.843571 64.003741v103.54344h125.700884v-103.54344h-125.700884z" p-id="4363" fill="#d81e06"></path></svg>