<svg t="1574770755563" class="icon" viewBox="0 0 1024 1024" version="1.1" xmlns="http://www.w3.org/2000/svg" p-id="1908" width="18" height="18"><path d="M509.022179 66.403363c-0.240477 0-0.472767 0.019443-0.709151 0.019443-184.685279 0.38681-334.328461 150.257166-334.328461 335.019193 0 180.706665 319.496661 540.968775 334.328461 557.595454 0.352017 0.390903 0.709151 0.796132 0.709151 0.796132s335.037612-373.383966 335.037612-558.391587C844.059791 216.439494 694.0298 66.403363 509.022179 66.403363L509.022179 66.403363zM509.022179 624.795972c-0.240477 0-0.472767-0.033769-0.709151-0.033769-123.012661-0.397043-222.648916-100.212376-222.648916-223.320205 0-123.108852 99.636255-222.934418 222.648916-223.316112 0.236384 0 0.468674-0.042979 0.709151-0.042979 123.349329 0 223.354997 100.009761 223.354997 223.359091C732.376153 524.796444 632.371508 624.795972 509.022179 624.795972L509.022179 624.795972zM509.022179 289.762453c-0.240477 0-0.472767 0.037862-0.709151 0.037862-61.32981 0.381693-110.970394 50.219775-110.970394 111.641683 0 61.416791 49.640584 111.254873 110.970394 111.64066 0.236384 0 0.468674 0.037862 0.709151 0.037862 61.649082 0 111.679545-50.021254 111.679545-111.678522C620.701724 339.783707 570.670238 289.762453 509.022179 289.762453L509.022179 289.762453zM509.022179 289.762453" p-id="1909" fill="#2c2c2c"></path></svg>