<?xml version="1.0" standalone="no"?><!DOCTYPE svg PUBLIC "-//W3C//DTD SVG 1.1//EN" "http://www.w3.org/Graphics/SVG/1.1/DTD/svg11.dtd"><svg t="1559131766202" class="icon" style="" viewBox="0 0 2930 1024" version="1.1" xmlns="http://www.w3.org/2000/svg" p-id="10132" xmlns:xlink="http://www.w3.org/1999/xlink" width="572.265625" height="200"><defs><style type="text/css"></style></defs><path d="M1589.389241 36.89931L2222.291862 477.748966 1589.389241 918.633931z" fill="#242741" p-id="10133"></path><path d="M1660.398345 173.02069l424.253793 303.351172-424.253793 303.386483z" fill="#FFD301" p-id="10134"></path><path d="M2295.172414 35.310345h70.620689v847.448276h-70.620689z" fill="#232742" p-id="10135"></path><path d="M2560 654.053517L2295.525517 37.252414l74.398897-3.495724 231.635862 544.026482L2834.220138 34.321655l73.445517 2.577655-272.948965 633.961931-4.06069-0.706207v352.291311h-70.62069V654.053517zM1348.502069 459.034483h134.17931l-281.529379 176.19862 281.529379 59.921656v90.253241l-218.747586 132.555034H1129.931034l276.903725-169.595586L1129.931034 688.551724v-98.33931zM741.517241 847.448276h282.482759v70.62069H670.896552V459.034483h353.103448v60.804414l1.624276 1.624275-1.624276 1.624276V529.655172h-6.567724l-266.451862 266.451862-9.463173-9.463172V847.448276z m0-317.793104v176.022069L917.53931 529.655172H741.517241z" fill="#232742" p-id="10136"></path><path d="M247.419586 516.590345L613.835034 953.37931H2612.965517v70.62069H564.965517v-19.138207L181.636414 547.945931 71.821241 600.275862v423.724138H0V38.347034h593.460966l147.102896 243.111725L247.419586 516.590345z" fill="#232742" p-id="10137"></path><path d="M79.236414 156.142345l117.724689 117.724689a88.275862 88.275862 0 0 1-117.724689-117.724689z m41.595586-41.595586a88.275862 88.275862 0 0 1 117.72469 117.724689L120.832 114.546759z" fill="#FFFFFF" p-id="10138"></path></svg>