<svg xmlns="http://www.w3.org/2000/svg" xmlns:xlink="http://www.w3.org/1999/xlink" viewBox="0 0 232.8 32.5">
<defs>
<style>.cls-1{fill:url(#tab);}.cls-2{fill:#c8c9d7;}</style>
<linearGradient id="tab" x1="115.9" y1="0.5" x2="115.9" y2="32.5" gradientUnits="userSpaceOnUse">
<stop offset="0.13" stop-color="#f0f0f5"/>
<stop offset="0.23" stop-color="#f0f0f5"/>
<stop offset="1" stop-color="#c2c5d2"/>
</linearGradient>
</defs>
<title>
tab页
</title>
<g id="图层" data-name="图层">
<path class="cls-1" d="M231.81,32.5V3.5a3,3,0,0,0-3-3H38.63a10.58,10.58,0,0,0-4,.78c-4.78,2-17,8-29.28,22.88A39.54,39.54,0,0,0,0,32.5"/>
<path class="cls-2" d="M6.23,24.48C18.49,9.67,30.65,3.64,35.31,1.74A10,10,0,0,1,39.13,1H229.3a2.5,2.5,0,0,1,2.5,2.5v29h1V3.5A3.5,3.5,0,0,0,229.3,0H39.13a11,11,0,0,0-4.2.81c-4.73,1.93-17.07,8.05-29.47,23A39.7,39.7,0,0,0,0,32.3a.49.49,0,0,0,0,.2H1A40.25,40.25,0,0,1,6.23,24.48Z"/></g>
</svg>