<svg t="1574417399950" class="icon" viewBox="0 0 1024 1024" version="1.1" xmlns="http://www.w3.org/2000/svg" p-id="2322" width="23" height="23"><path d="M723.776 558.272C789.632 499.648 832 415.104 832 320A320 320 0 0 0 192 320c0 95.104 42.368 179.648 108.224 238.272A511.68 511.68 0 0 0 0 1024h128a384.512 384.512 0 0 1 383.616-384.064L512 640l0.448-0.064A384.448 384.448 0 0 1 896 1024h128a511.68 511.68 0 0 0-300.224-465.728zM512 128c105.92 0 192 86.08 192 192 0 105.792-86.08 192-192 192S320 425.792 320 320c0-105.92 86.08-192 192-192z" p-id="2323" fill="#1296db"></path></svg>