<?xml version="1.0" standalone="no"?><!DOCTYPE svg PUBLIC "-//W3C//DTD SVG 1.1//EN" "http://www.w3.org/Graphics/SVG/1.1/DTD/svg11.dtd"><svg t="1558710621469" class="icon" style="" viewBox="0 0 1024 1024" version="1.1" xmlns="http://www.w3.org/2000/svg" p-id="2772" xmlns:xlink="http://www.w3.org/1999/xlink" width="200" height="200"><defs><style type="text/css"></style></defs><path d="M810.2 130.2H211.1c-55.1 0-99.8 44.7-99.8 99.8v599.1c0 55.1 44.7 99.8 99.8 99.8h599.1c55.1 0 99.8-44.7 99.8-99.8v-599c0-55.2-44.7-99.9-99.8-99.9z m-324.5 674c0 13.8-11.2 25-25 25s-25-11.2-25-25l0.8-164.1-169.4 169.4-35.3-35.3 169.7-169.7H236c-13.8 0-25-11.2-25-25s11.2-25 25-25h223.9c7 0 13.3 2.9 17.8 7.5 4.8 4.1 7.9 10.1 7.9 17.5v224.7z m299.5-299.6H561.3c-7 0-13.3-2.9-17.8-7.5-4.8-4.1-7.9-10.1-7.9-17.5V255c0-13.8 11.2-25 25-25s25 11.2 25 25l-0.8 164.1 169.4-169.4 35.3 35.3-169.8 169.7h165.5c13.8 0 25 11.2 25 25s-11.2 24.9-25 24.9z" p-id="2773" fill="#8a8a8a"></path></svg>